<svg xmlns="http://www.w3.org/2000/svg" viewBox="0 0 234.381 100"><path fill="#01426a" d="M28.977 95.455h-7.386l-1.42 4.26h-3.694l6.818-18.18h3.977l6.819 18.18h-3.693Zm-6.25-3.41h5.114l-2.557-6.818Zm24.148 7.387V81.25h3.693v18.182Zm24.148-6.818h-1.705v7.102H65.91V81.534h7.102a5.523 5.523 0 0 1 5.682 5.36q.005.16 0 .322a4.926 4.926 0 0 1-3.977 5.113l3.977 7.387h-3.977Zm.852-3.125a2.571 2.571 0 1 0 0-5.114h-2.84v5.114Zm20.739 9.943V81.25h3.409v14.773h7.955v3.409Zm25.568 0V81.25h3.693v18.182Zm30.398 0-8.239-12.784v12.784h-3.409V81.25h4.262l7.386 11.932V81.25h3.409v18.182Zm19.034 0V81.25h11.364v3.409h-7.67v4.261h7.102v3.125h-7.102v4.261h7.67v3.41h-11.364Zm34.944-12.784a3.22 3.22 0 0 0-3.41-2.557 2.6 2.6 0 0 0-2.84 2.273c0 1.136.568 1.704 1.988 1.988l2.557.568c3.41.569 5.114 2.841 5.114 5.398 0 2.841-2.273 5.682-6.534 5.682-4.83 0-6.819-3.125-7.103-5.682l3.125-.852a3.8 3.8 0 0 0 3.978 3.41c1.988 0 2.84-.853 2.84-2.274 0-1.136-.852-1.988-2.272-2.273l-2.557-.568c-2.84-.568-4.83-2.557-4.83-5.113 0-3.125 2.841-5.682 6.25-5.682 4.262 0 5.966 2.557 6.534 4.83ZM112.784 3.409 86.648 47.443a28.8 28.8 0 0 0-4.546 13.636H71.875c.568-5.681 2.84-10.795 7.386-18.466l18.467-30.682c3.409-6.534 7.102-8.522 13.636-8.522Zm-1.988 46.307c-1.989 1.704-5.682 4.545-8.807 4.545-2.273 0-2.273-1.988-.852-4.83 5.682-10.511 11.363-16.193 18.466-16.193h1.42Zm9.659-22.728c-13.353 0-21.591 7.67-28.694 24.716-1.704 4.262-2.84 9.66 3.41 9.375 3.409 0 9.375-1.988 13.636-4.83a12.7 12.7 0 0 0-.284 4.546h9.375c.284-3.693 1.705-8.239 4.83-13.637l11.648-19.601c-4.83-.285-9.375-.569-13.921-.569m86.364 22.728c-1.989 1.704-5.682 4.545-8.807 4.545-2.273 0-2.273-1.988-.852-4.83 5.682-10.511 11.364-16.193 18.466-16.193h1.42Zm9.659-22.728c-13.353 0-21.591 7.67-28.694 24.716-1.704 4.262-2.84 9.66 3.41 9.375 3.409 0 9.375-1.988 13.636-4.83a12.7 12.7 0 0 0-.284 4.546h9.375c.284-3.693 1.704-8.239 4.83-13.637l11.364-19.318a110 110 0 0 0-13.637-.852"/><path fill="#01426a" d="M186.08 70.455h-3.125a8.785 8.785 0 0 1-8.523-6.534l-4.545-17.614-8.807 14.489h-9.943l27.84-47.16c3.694-5.966 7.387-8.238 13.921-8.238h1.137l-18.466 31.25 13.92-9.66h11.08l-23.295 16.194ZM94.602.568c-9.375 0-14.204 2.557-23.295 9.09l-31.25 22.444h-20.17c-5.682 0-10.512.284-13.92 3.693l-5.114 4.83s15.056-.568 28.977-1.136L0 60.796h12.784L43.182 38.92c5.966-.284 9.943-.284 9.943-.284 7.102-.284 11.08-6.534 11.08-6.534H52.557l24.716-17.898L59.09 43.75c-3.978 6.818-5.682 11.648-6.534 16.761h10.511c.284-4.545 1.989-9.09 4.546-13.636l25-41.762A371 371 0 0 1 95.739 0Zm49.432 36.079c0 .853.285 1.42 1.99 2.557l2.84 1.989a8.13 8.13 0 0 1 3.977 7.67c-1.136 7.102-6.25 12.5-17.045 12.5a68 68 0 0 1-12.5-1.136l4.261-7.103c3.977.568 6.25 1.137 9.091 1.137 3.977 0 5.682-1.989 5.966-3.41 0-.852-.284-1.988-2.273-3.409l-2.272-1.704c-3.694-2.557-4.546-4.546-3.978-7.955.853-6.25 7.955-10.795 17.898-10.795 3.125 0 6.534.284 10.227.568l-3.977 6.818c-2.557-.284-6.534-.284-9.09-.284-2.841 0-4.83 1.137-5.115 2.557m85.228 14.205a5.16 5.16 0 0 1 5.119 5.206q0 .096-.005.192a5.34 5.34 0 0 1-5.114 5.398 5.16 5.16 0 0 1-5.119-5.205q.001-.097.006-.193a5.34 5.34 0 0 1 5.113-5.398m0 9.66a3.96 3.96 0 0 0 3.989-3.932q.001-.165-.012-.33a4.13 4.13 0 0 0-3.977-4.261 3.96 3.96 0 0 0-3.989 3.931q0 .165.012.33a4.13 4.13 0 0 0 3.977 4.261m-.568-1.42h-1.136v-5.683h1.988a1.77 1.77 0 0 1 .853 3.41l1.42 2.272h-1.705l-1.136-2.273h-.568v2.273Zm.568-3.126c.568 0 1.137-.284 1.137-.852s-.285-.852-1.137-.852h-.852v1.705Z"/></svg>